<svg version="1.1" viewBox="0.0 0.0 384.0 192.0" fill="none" stroke="none" stroke-linecap="square" stroke-miterlimit="10" xmlns:xlink="http://www.w3.org/1999/xlink" xmlns="http://www.w3.org/2000/svg"><clipPath id="g2f77807a5e4_0_11.0"><path d="m0 0l384.0 0l0 192.0l-384.0 0l0 -192.0z" clip-rule="nonzero"/></clipPath><g clip-path="url(#g2f77807a5e4_0_11.0)"><path fill="#ffffff" d="m0 0l384.0 0l0 192.0l-384.0 0z" fill-rule="evenodd"/><path fill="#663399" d="m-5.254593E-4 7.1574806E-4l384.0 0l0 192.0l-384.0 0z" fill-rule="evenodd"/><path fill="#ffffff" d="m51.895134 125.76071l0 -55.125l25.796875 0q8.421875 0 13.46875 4.921875q5.046875 4.90625 5.046875 12.84375q0 7.84375 -5.171875 12.8125q-5.171875 4.953125 -13.34375 4.953125l-14.0625 0l0 19.59375l-11.734375 0zm24.21875 -29.921875q3.46875 0 5.78125 -1.984375q2.328125 -1.984375 2.328125 -5.453125q0 -3.46875 -2.328125 -5.453125q-2.3125 -1.984375 -5.78125 -1.984375l-12.484375 0l0 14.875l12.484375 0zm27.108688 29.921875l0 -55.125l10.5 0l0 55.125l-10.5 0zm47.865135 0l0 -5.046875q-5.375 6.03125 -14.046875 6.03125q-6.625 0 -9.765633 -3.34375q-3.140625 -3.34375 -3.140625 -9.21875l0 -28.34375l10.500008 0l0 24.21875q0 7.359375 7.359375 7.359375q5.375 0 9.09375 -4.546875l0 -27.03125l10.5 0l0 39.921875l-10.5 0zm70.42041 0l0 -25.203125q0 -6.375 -5.953125 -6.375q-2.8125 0 -4.96875 1.5q-2.140625 1.484375 -3.296875 3.125l0 26.953125l-10.578125 0l0 -25.203125q0 -6.375 -5.953125 -6.375q-2.71875 0 -4.921875 1.53125q-2.1875 1.53125 -3.34375 3.1875l0 26.859375l-10.5 0l0 -39.921875l10.5 0l0 5.203125q1.40625 -2.234375 5.25 -4.21875q3.84375 -1.984375 7.8125 -1.984375q8.671875 0 11.078125 7.28125q1.890625 -3.0625 5.6875 -5.171875q3.8125 -2.109375 8.03125 -2.109375q11.734375 0 11.734375 12.078125l0 28.84375l-10.578125 0zm80.34863 0l-3.390625 -9.34375l-23.640625 0l-3.46875 9.34375l-13.390625 0l21.3125 -55.125l14.71875 0l21.25 55.125l-13.390625 0zm-15.21875 -43.390625l-8.59375 23.71875l17.1875 0l-8.59375 -23.71875zm33.724304 43.390625l0 -55.125l11.734375 0l0 55.125l-11.734375 0z" fill-rule="nonzero"/></g></svg>